<?xml version="1.0" standalone="no"?>
<!DOCTYPE svg PUBLIC "-//W3C//DTD SVG 20010904//EN"
 "http://www.w3.org/TR/2001/REC-SVG-20010904/DTD/svg10.dtd">
<svg version="1.0" xmlns="http://www.w3.org/2000/svg"
 width="200.000000pt" height="200.000000pt" viewBox="0 0 200.000000 200.000000"
 preserveAspectRatio="xMidYMid meet">
<metadata>
Created by potrace 1.11, written by Peter Selinger 2001-2013
</metadata>
<g transform="translate(0.000000,200.000000) scale(0.100000,-0.100000)"
fill="#000000" stroke="none">
<path d="M904 1935 c3 -27 8 -61 11 -75 6 -24 6 -24 -19 5 -15 17 -31 47 -38
68 -6 20 -15 37 -20 37 -4 0 -8 -3 -8 -7 1 -10 19 -92 26 -115 4 -13 -5 -20
-38 -28 -68 -19 -178 -73 -238 -118 -30 -23 -61 -42 -70 -43 -8 0 -22 -2 -30
-4 -8 -2 -49 -10 -90 -18 -41 -8 -105 -30 -142 -47 -117 -56 -161 -115 -161
-215 0 -92 23 -131 97 -166 34 -16 69 -29 79 -29 21 0 22 8 -8 -74 -29 -80
-53 -121 -93 -158 -94 -87 -106 -295 -28 -472 108 -245 346 -408 671 -460 143
-23 376 -15 496 17 249 65 431 197 541 392 53 94 73 167 72 270 0 99 -22 162
-70 207 -42 38 -70 90 -88 159 -20 82 -21 109 0 109 8 0 36 9 62 20 67 29 95
74 96 153 1 34 -2 74 -7 89 -23 83 -167 169 -321 193 -24 3 -61 21 -91 44 -63
47 -222 125 -292 142 -50 12 -53 15 -77 68 l-24 56 5 -54 c7 -65 -9 -63 -39 5
-10 24 -20 44 -22 44 -2 0 -1 -20 1 -45 7 -65 -12 -57 -48 18 l-29 62 6 -45
c3 -25 7 -53 10 -62 3 -10 1 -18 -4 -18 -17 0 -42 37 -63 91 l-20 54 5 -50z"/>
</g>
</svg>
